<svg version="1.1"
baseProfile="full"
width= "801" height="692"
xmlns="http://www.w3.org/2000/svg">
<polygon points="0,692 801,692 400,0" class="triangle" fill="blue"/>
<polygon points="0,692 50,692 25,649" class="triangle" fill="green"/>
<polygon points="75,649 50,692 25,649" class="triangle" fill="green"/>
<polygon points="50,692 100,692 75,649" class="triangle" fill="green"/>
<polygon points="125,649 100,692 75,649" class="triangle" fill="green"/>
<polygon points="100,692 150,692 125,649" class="triangle" fill="green"/>
<polygon points="175,649 150,692 125,649" class="triangle" fill="green"/>
<polygon points="150,692 200,692 175,649" class="triangle" fill="green"/>
<polygon points="225,649 200,692 175,649" class="triangle" fill="green"/>
<polygon points="200,692 250,692 225,649" class="triangle" fill="green"/>
<polygon points="275,649 250,692 225,649" class="triangle" fill="green"/>
<polygon points="250,692 300,692 275,649" class="triangle" fill="green"/>
<polygon points="325,649 300,692 275,649" class="triangle" fill="green"/>
<polygon points="300,692 350,692 325,649" class="triangle" fill="green"/>
<polygon points="375,649 350,692 325,649" class="triangle" fill="green"/>
<polygon points="350,692 400,692 375,649" class="triangle" fill="green"/>
<polygon points="425,649 400,692 375,649" class="triangle" fill="green"/>
<polygon points="400,692 450,692 425,649" class="triangle" fill="green"/>
<polygon points="475,649 450,692 425,649" class="triangle" fill="green"/>
<polygon points="450,692 500,692 475,649" class="triangle" fill="green"/>
<polygon points="525,649 500,692 475,649" class="triangle" fill="green"/>
<polygon points="500,692 550,692 525,649" class="triangle" fill="green"/>
<polygon points="575,649 550,692 525,649" class="triangle" fill="green"/>
<polygon points="550,692 600,692 575,649" class="triangle" fill="green"/>
<polygon points="625,649 600,692 575,649" class="triangle" fill="green"/>
<polygon points="600,692 650,692 625,649" class="triangle" fill="green"/>
<polygon points="675,649 650,692 625,649" class="triangle" fill="green"/>
<polygon points="650,692 700,692 675,649" class="triangle" fill="green"/>
<polygon points="725,649 700,692 675,649" class="triangle" fill="green"/>
<polygon points="700,692 750,692 725,649" class="triangle" fill="green"/>
<polygon points="775,649 750,692 725,649" class="triangle" fill="green"/>
<polygon points="750,692 800,692 775,649" class="triangle" fill="green"/>
<polygon points="25,649 75,649 50,606" class="triangle" fill="green"/>
<polygon points="100,606 75,649 50,606" class="triangle" fill="green"/>
<polygon points="75,649 125,649 100,606" class="triangle" fill="green"/>
<polygon points="150,606 125,649 100,606" class="triangle" fill="green"/>
<polygon points="125,649 175,649 150,606" class="triangle" fill="green"/>
<polygon points="200,606 175,649 150,606" class="triangle" fill="green"/>
<polygon points="175,649 225,649 200,606" class="triangle" fill="green"/>
<polygon points="250,606 225,649 200,606" class="triangle" fill="green"/>
<polygon points="225,649 275,649 250,606" class="triangle" fill="green"/>
<polygon points="300,606 275,649 250,606" class="triangle" fill="green"/>
<polygon points="275,649 325,649 300,606" class="triangle" fill="green"/>
<polygon points="350,606 325,649 300,606" class="triangle" fill="green"/>
<polygon points="325,649 375,649 350,606" class="triangle" fill="green"/>
<polygon points="400,606 375,649 350,606" class="triangle" fill="green"/>
<polygon points="375,649 425,649 400,606" class="triangle" fill="green"/>
<polygon points="450,606 425,649 400,606" class="triangle" fill="green"/>
<polygon points="425,649 475,649 450,606" class="triangle" fill="green"/>
<polygon points="500,606 475,649 450,606" class="triangle" fill="green"/>
<polygon points="475,649 525,649 500,606" class="triangle" fill="green"/>
<polygon points="550,606 525,649 500,606" class="triangle" fill="green"/>
<polygon points="525,649 575,649 550,606" class="triangle" fill="green"/>
<polygon points="600,606 575,649 550,606" class="triangle" fill="green"/>
<polygon points="575,649 625,649 600,606" class="triangle" fill="green"/>
<polygon points="650,606 625,649 600,606" class="triangle" fill="green"/>
<polygon points="625,649 675,649 650,606" class="triangle" fill="green"/>
<polygon points="700,606 675,649 650,606" class="triangle" fill="green"/>
<polygon points="675,649 725,649 700,606" class="triangle" fill="green"/>
<polygon points="750,606 725,649 700,606" class="triangle" fill="green"/>
<polygon points="725,649 775,649 750,606" class="triangle" fill="green"/>
<polygon points="50,606 100,606 75,563" class="triangle" fill="green"/>
<polygon points="125,563 100,606 75,563" class="triangle" fill="green"/>
<polygon points="100,606 150,606 125,563" class="triangle" fill="green"/>
<polygon points="175,563 150,606 125,563" class="triangle" fill="green"/>
<polygon points="150,606 200,606 175,563" class="triangle" fill="green"/>
<polygon points="225,563 200,606 175,563" class="triangle" fill="green"/>
<polygon points="200,606 250,606 225,563" class="triangle" fill="green"/>
<polygon points="275,563 250,606 225,563" class="triangle" fill="green"/>
<polygon points="250,606 300,606 275,563" class="triangle" fill="green"/>
<polygon points="325,563 300,606 275,563" class="triangle" fill="green"/>
<polygon points="300,606 350,606 325,563" class="triangle" fill="green"/>
<polygon points="375,563 350,606 325,563" class="triangle" fill="green"/>
<polygon points="350,606 400,606 375,563" class="triangle" fill="green"/>
<polygon points="425,563 400,606 375,563" class="triangle" fill="green"/>
<polygon points="400,606 450,606 425,563" class="triangle" fill="green"/>
<polygon points="475,563 450,606 425,563" class="triangle" fill="green"/>
<polygon points="450,606 500,606 475,563" class="triangle" fill="green"/>
<polygon points="525,563 500,606 475,563" class="triangle" fill="green"/>
<polygon points="500,606 550,606 525,563" class="triangle" fill="green"/>
<polygon points="575,563 550,606 525,563" class="triangle" fill="green"/>
<polygon points="550,606 600,606 575,563" class="triangle" fill="green"/>
<polygon points="625,563 600,606 575,563" class="triangle" fill="green"/>
<polygon points="600,606 650,606 625,563" class="triangle" fill="green"/>
<polygon points="675,563 650,606 625,563" class="triangle" fill="green"/>
<polygon points="650,606 700,606 675,563" class="triangle" fill="green"/>
<polygon points="725,563 700,606 675,563" class="triangle" fill="green"/>
<polygon points="700,606 750,606 725,563" class="triangle" fill="green"/>
<polygon points="75,563 125,563 100,520" class="triangle" fill="green"/>
<polygon points="150,520 125,563 100,520" class="triangle" fill="green"/>
<polygon points="125,563 175,563 150,520" class="triangle" fill="green"/>
<polygon points="200,520 175,563 150,520" class="triangle" fill="green"/>
<polygon points="175,563 225,563 200,520" class="triangle" fill="green"/>
<polygon points="250,520 225,563 200,520" class="triangle" fill="green"/>
<polygon points="225,563 275,563 250,520" class="triangle" fill="green"/>
<polygon points="300,520 275,563 250,520" class="triangle" fill="green"/>
<polygon points="275,563 325,563 300,520" class="triangle" fill="green"/>
<polygon points="350,520 325,563 300,520" class="triangle" fill="green"/>
<polygon points="325,563 375,563 350,520" class="triangle" fill="green"/>
<polygon points="400,520 375,563 350,520" class="triangle" fill="green"/>
<polygon points="375,563 425,563 400,520" class="triangle" fill="green"/>
<polygon points="450,520 425,563 400,520" class="triangle" fill="green"/>
<polygon points="425,563 475,563 450,520" class="triangle" fill="green"/>
<polygon points="500,520 475,563 450,520" class="triangle" fill="green"/>
<polygon points="475,563 525,563 500,520" class="triangle" fill="green"/>
<polygon points="550,520 525,563 500,520" class="triangle" fill="green"/>
<polygon points="525,563 575,563 550,520" class="triangle" fill="green"/>
<polygon points="600,520 575,563 550,520" class="triangle" fill="green"/>
<polygon points="575,563 625,563 600,520" class="triangle" fill="green"/>
<polygon points="650,520 625,563 600,520" class="triangle" fill="green"/>
<polygon points="625,563 675,563 650,520" class="triangle" fill="green"/>
<polygon points="700,520 675,563 650,520" class="triangle" fill="green"/>
<polygon points="675,563 725,563 700,520" class="triangle" fill="green"/>
<polygon points="100,520 150,520 125,477" class="triangle" fill="green"/>
<polygon points="175,477 150,520 125,477" class="triangle" fill="green"/>
<polygon points="150,520 200,520 175,477" class="triangle" fill="green"/>
<polygon points="225,477 200,520 175,477" class="triangle" fill="green"/>
<polygon points="200,520 250,520 225,477" class="triangle" fill="green"/>
<polygon points="275,477 250,520 225,477" class="triangle" fill="green"/>
<polygon points="250,520 300,520 275,477" class="triangle" fill="green"/>
<polygon points="325,477 300,520 275,477" class="triangle" fill="green"/>
<polygon points="300,520 350,520 325,477" class="triangle" fill="green"/>
<polygon points="375,477 350,520 325,477" class="triangle" fill="green"/>
<polygon points="350,520 400,520 375,477" class="triangle" fill="green"/>
<polygon points="425,477 400,520 375,477" class="triangle" fill="green"/>
<polygon points="400,520 450,520 425,477" class="triangle" fill="green"/>
<polygon points="475,477 450,520 425,477" class="triangle" fill="green"/>
<polygon points="450,520 500,520 475,477" class="triangle" fill="green"/>
<polygon points="525,477 500,520 475,477" class="triangle" fill="green"/>
<polygon points="500,520 550,520 525,477" class="triangle" fill="green"/>
<polygon points="575,477 550,520 525,477" class="triangle" fill="green"/>
<polygon points="550,520 600,520 575,477" class="triangle" fill="green"/>
<polygon points="625,477 600,520 575,477" class="triangle" fill="green"/>
<polygon points="600,520 650,520 625,477" class="triangle" fill="green"/>
<polygon points="675,477 650,520 625,477" class="triangle" fill="green"/>
<polygon points="650,520 700,520 675,477" class="triangle" fill="green"/>
<polygon points="125,477 175,477 150,434" class="triangle" fill="green"/>
<polygon points="200,434 175,477 150,434" class="triangle" fill="green"/>
<polygon points="175,477 225,477 200,434" class="triangle" fill="green"/>
<polygon points="250,434 225,477 200,434" class="triangle" fill="green"/>
<polygon points="225,477 275,477 250,434" class="triangle" fill="green"/>
<polygon points="300,434 275,477 250,434" class="triangle" fill="green"/>
<polygon points="275,477 325,477 300,434" class="triangle" fill="green"/>
<polygon points="350,434 325,477 300,434" class="triangle" fill="green"/>
<polygon points="325,477 375,477 350,434" class="triangle" fill="green"/>
<polygon points="400,434 375,477 350,434" class="triangle" fill="green"/>
<polygon points="375,477 425,477 400,434" class="triangle" fill="green"/>
<polygon points="450,434 425,477 400,434" class="triangle" fill="green"/>
<polygon points="425,477 475,477 450,434" class="triangle" fill="green"/>
<polygon points="500,434 475,477 450,434" class="triangle" fill="green"/>
<polygon points="475,477 525,477 500,434" class="triangle" fill="green"/>
<polygon points="550,434 525,477 500,434" class="triangle" fill="green"/>
<polygon points="525,477 575,477 550,434" class="triangle" fill="green"/>
<polygon points="600,434 575,477 550,434" class="triangle" fill="green"/>
<polygon points="575,477 625,477 600,434" class="triangle" fill="green"/>
<polygon points="650,434 625,477 600,434" class="triangle" fill="green"/>
<polygon points="625,477 675,477 650,434" class="triangle" fill="green"/>
<polygon points="150,434 200,434 175,391" class="triangle" fill="green"/>
<polygon points="225,391 200,434 175,391" class="triangle" fill="green"/>
<polygon points="200,434 250,434 225,391" class="triangle" fill="green"/>
<polygon points="275,391 250,434 225,391" class="triangle" fill="green"/>
<polygon points="250,434 300,434 275,391" class="triangle" fill="green"/>
<polygon points="325,391 300,434 275,391" class="triangle" fill="green"/>
<polygon points="300,434 350,434 325,391" class="triangle" fill="green"/>
<polygon points="375,391 350,434 325,391" class="triangle" fill="green"/>
<polygon points="350,434 400,434 375,391" class="triangle" fill="green"/>
<polygon points="425,391 400,434 375,391" class="triangle" fill="green"/>
<polygon points="400,434 450,434 425,391" class="triangle" fill="green"/>
<polygon points="475,391 450,434 425,391" class="triangle" fill="green"/>
<polygon points="450,434 500,434 475,391" class="triangle" fill="green"/>
<polygon points="525,391 500,434 475,391" class="triangle" fill="green"/>
<polygon points="500,434 550,434 525,391" class="triangle" fill="green"/>
<polygon points="575,391 550,434 525,391" class="triangle" fill="green"/>
<polygon points="550,434 600,434 575,391" class="triangle" fill="green"/>
<polygon points="625,391 600,434 575,391" class="triangle" fill="green"/>
<polygon points="600,434 650,434 625,391" class="triangle" fill="green"/>
<polygon points="175,391 225,391 200,348" class="triangle" fill="green"/>
<polygon points="250,348 225,391 200,348" class="triangle" fill="green"/>
<polygon points="225,391 275,391 250,348" class="triangle" fill="green"/>
<polygon points="300,348 275,391 250,348" class="triangle" fill="green"/>
<polygon points="275,391 325,391 300,348" class="triangle" fill="green"/>
<polygon points="350,348 325,391 300,348" class="triangle" fill="green"/>
<polygon points="325,391 375,391 350,348" class="triangle" fill="green"/>
<polygon points="400,348 375,391 350,348" class="triangle" fill="green"/>
<polygon points="375,391 425,391 400,348" class="triangle" fill="green"/>
<polygon points="450,348 425,391 400,348" class="triangle" fill="green"/>
<polygon points="425,391 475,391 450,348" class="triangle" fill="green"/>
<polygon points="500,348 475,391 450,348" class="triangle" fill="green"/>
<polygon points="475,391 525,391 500,348" class="triangle" fill="green"/>
<polygon points="550,348 525,391 500,348" class="triangle" fill="green"/>
<polygon points="525,391 575,391 550,348" class="triangle" fill="green"/>
<polygon points="600,348 575,391 550,348" class="triangle" fill="green"/>
<polygon points="575,391 625,391 600,348" class="triangle" fill="green"/>
<polygon points="200,348 250,348 225,305" class="triangle" fill="green"/>
<polygon points="275,305 250,348 225,305" class="triangle" fill="green"/>
<polygon points="250,348 300,348 275,305" class="triangle" fill="green"/>
<polygon points="325,305 300,348 275,305" class="triangle" fill="green"/>
<polygon points="300,348 350,348 325,305" class="triangle" fill="green"/>
<polygon points="375,305 350,348 325,305" class="triangle" fill="green"/>
<polygon points="350,348 400,348 375,305" class="triangle" fill="green"/>
<polygon points="425,305 400,348 375,305" class="triangle" fill="green"/>
<polygon points="400,348 450,348 425,305" class="triangle" fill="green"/>
<polygon points="475,305 450,348 425,305" class="triangle" fill="green"/>
<polygon points="450,348 500,348 475,305" class="triangle" fill="green"/>
<polygon points="525,305 500,348 475,305" class="triangle" fill="green"/>
<polygon points="500,348 550,348 525,305" class="triangle" fill="green"/>
<polygon points="575,305 550,348 525,305" class="triangle" fill="green"/>
<polygon points="550,348 600,348 575,305" class="triangle" fill="green"/>
<polygon points="225,305 275,305 250,262" class="triangle" fill="green"/>
<polygon points="300,262 275,305 250,262" class="triangle" fill="green"/>
<polygon points="275,305 325,305 300,262" class="triangle" fill="green"/>
<polygon points="350,262 325,305 300,262" class="triangle" fill="green"/>
<polygon points="325,305 375,305 350,262" class="triangle" fill="green"/>
<polygon points="400,262 375,305 350,262" class="triangle" fill="green"/>
<polygon points="375,305 425,305 400,262" class="triangle" fill="green"/>
<polygon points="450,262 425,305 400,262" class="triangle" fill="green"/>
<polygon points="425,305 475,305 450,262" class="triangle" fill="green"/>
<polygon points="500,262 475,305 450,262" class="triangle" fill="green"/>
<polygon points="475,305 525,305 500,262" class="triangle" fill="green"/>
<polygon points="550,262 525,305 500,262" class="triangle" fill="green"/>
<polygon points="525,305 575,305 550,262" class="triangle" fill="green"/>
<polygon points="250,262 300,262 275,219" class="triangle" fill="green"/>
<polygon points="325,219 300,262 275,219" class="triangle" fill="green"/>
<polygon points="300,262 350,262 325,219" class="triangle" fill="green"/>
<polygon points="375,219 350,262 325,219" class="triangle" fill="green"/>
<polygon points="350,262 400,262 375,219" class="triangle" fill="green"/>
<polygon points="425,219 400,262 375,219" class="triangle" fill="green"/>
<polygon points="400,262 450,262 425,219" class="triangle" fill="green"/>
<polygon points="475,219 450,262 425,219" class="triangle" fill="green"/>
<polygon points="450,262 500,262 475,219" class="triangle" fill="green"/>
<polygon points="525,219 500,262 475,219" class="triangle" fill="green"/>
<polygon points="500,262 550,262 525,219" class="triangle" fill="green"/>
<polygon points="275,219 325,219 300,176" class="triangle" fill="green"/>
<polygon points="350,176 325,219 300,176" class="triangle" fill="green"/>
<polygon points="325,219 375,219 350,176" class="triangle" fill="green"/>
<polygon points="400,176 375,219 350,176" class="triangle" fill="green"/>
<polygon points="375,219 425,219 400,176" class="triangle" fill="green"/>
<polygon points="450,176 425,219 400,176" class="triangle" fill="green"/>
<polygon points="425,219 475,219 450,176" class="triangle" fill="green"/>
<polygon points="500,176 475,219 450,176" class="triangle" fill="green"/>
<polygon points="475,219 525,219 500,176" class="triangle" fill="green"/>
<polygon points="300,176 350,176 325,133" class="triangle" fill="green"/>
<polygon points="375,133 350,176 325,133" class="triangle" fill="green"/>
<polygon points="350,176 400,176 375,133" class="triangle" fill="green"/>
<polygon points="425,133 400,176 375,133" class="triangle" fill="green"/>
<polygon points="400,176 450,176 425,133" class="triangle" fill="green"/>
<polygon points="475,133 450,176 425,133" class="triangle" fill="green"/>
<polygon points="450,176 500,176 475,133" class="triangle" fill="green"/>
<polygon points="325,133 375,133 350,90" class="triangle" fill="green"/>
<polygon points="400,90 375,133 350,90" class="triangle" fill="green"/>
<polygon points="375,133 425,133 400,90" class="triangle" fill="green"/>
<polygon points="450,90 425,133 400,90" class="triangle" fill="green"/>
<polygon points="425,133 475,133 450,90" class="triangle" fill="green"/>
<polygon points="350,90 400,90 375,47" class="triangle" fill="green"/>
<polygon points="425,47 400,90 375,47" class="triangle" fill="green"/>
<polygon points="400,90 450,90 425,47" class="triangle" fill="green"/>
<polygon points="375,47 425,47 400,4" class="triangle" fill="green"/>
</svg>
