<svg version="1.1"
baseProfile="full"
width= "301" height="259"
xmlns="http://www.w3.org/2000/svg">
<polygon points="0,259 301,259 150,0" class="triangle" fill="blue" /> 
<polygon points="0,259 100,259 50,173" class="triangle" fill="green" style="stroke-width:1;stroke:rgb(10,10,10)" />
<polygon points="150,173 100,259 50,173" class="triangle" fill="green" style="stroke-width:1;stroke:rgb(10,10,10)" />
<polygon points="100,259 200,259 150,173" class="triangle" fill="green" style="stroke-width:1;stroke:rgb(10,10,10)" />
<polygon points="250,173 200,259 150,173" class="triangle" fill="green" style="stroke-width:1;stroke:rgb(10,10,10)" />
<polygon points="200,259 300,259 250,173" class="triangle" fill="green" style="stroke-width:1;stroke:rgb(10,10,10)" />
<polygon points="50,173 150,173 100,87" class="triangle" fill="green" style="stroke-width:1;stroke:rgb(10,10,10)" />
<polygon points="200,87 150,173 100,87" class="triangle" fill="green" style="stroke-width:1;stroke:rgb(10,10,10)" />
<polygon points="150,173 250,173 200,87" class="triangle" fill="green" style="stroke-width:1;stroke:rgb(10,10,10)" />
<polygon points="100,87 200,87 150,1" class="triangle" fill="green" style="stroke-width:1;stroke:rgb(10,10,10)" />
</svg>
