<svg version="1.1"
baseProfile="full"
width= "200" height="75"
xmlns="http://www.w3.org/2000/svg">
<rect x="0" y="0" width="200" height="75" fill="blue"/>
<polygon points="0,13 16,13 8,0" class="triangle" fill="green" style="stroke-width:1;stroke:rgb(10,10,10)" />
<polygon points="24,0 16,13 8,0" class="triangle" fill="green" style="stroke-width:1;stroke:rgb(10,10,10)" />
<polygon points="16,13 32,13 24,0" class="triangle" fill="green" style="stroke-width:1;stroke:rgb(10,10,10)" />
<polygon points="40,0 32,13 24,0" class="triangle" fill="green" style="stroke-width:1;stroke:rgb(10,10,10)" />
<polygon points="32,13 48,13 40,0" class="triangle" fill="green" style="stroke-width:1;stroke:rgb(10,10,10)" />
<polygon points="56,0 48,13 40,0" class="triangle" fill="green" style="stroke-width:1;stroke:rgb(10,10,10)" />
<polygon points="48,13 64,13 56,0" class="triangle" fill="green" style="stroke-width:1;stroke:rgb(10,10,10)" />
<polygon points="72,0 64,13 56,0" class="triangle" fill="green" style="stroke-width:1;stroke:rgb(10,10,10)" />
<polygon points="64,13 80,13 72,0" class="triangle" fill="green" style="stroke-width:1;stroke:rgb(10,10,10)" />
<polygon points="88,0 80,13 72,0" class="triangle" fill="green" style="stroke-width:1;stroke:rgb(10,10,10)" />
<polygon points="80,13 96,13 88,0" class="triangle" fill="green" style="stroke-width:1;stroke:rgb(10,10,10)" />
<polygon points="104,0 96,13 88,0" class="triangle" fill="green" style="stroke-width:1;stroke:rgb(10,10,10)" />
<polygon points="96,13 112,13 104,0" class="triangle" fill="green" style="stroke-width:1;stroke:rgb(10,10,10)" />
<polygon points="120,0 112,13 104,0" class="triangle" fill="green" style="stroke-width:1;stroke:rgb(10,10,10)" />
<polygon points="112,13 128,13 120,0" class="triangle" fill="green" style="stroke-width:1;stroke:rgb(10,10,10)" />
<polygon points="136,0 128,13 120,0" class="triangle" fill="green" style="stroke-width:1;stroke:rgb(10,10,10)" />
<polygon points="128,13 144,13 136,0" class="triangle" fill="green" style="stroke-width:1;stroke:rgb(10,10,10)" />
<polygon points="152,0 144,13 136,0" class="triangle" fill="green" style="stroke-width:1;stroke:rgb(10,10,10)" />
<polygon points="144,13 160,13 152,0" class="triangle" fill="green" style="stroke-width:1;stroke:rgb(10,10,10)" />
<polygon points="168,0 160,13 152,0" class="triangle" fill="green" style="stroke-width:1;stroke:rgb(10,10,10)" />
<polygon points="160,13 176,13 168,0" class="triangle" fill="green" style="stroke-width:1;stroke:rgb(10,10,10)" />
<polygon points="184,0 176,13 168,0" class="triangle" fill="green" style="stroke-width:1;stroke:rgb(10,10,10)" />
<polygon points="176,13 192,13 184,0" class="triangle" fill="green" style="stroke-width:1;stroke:rgb(10,10,10)" />
<polygon points="200,0 192,13 184,0" class="triangle" fill="green" style="stroke-width:1;stroke:rgb(10,10,10)" />
<polygon points="0,26 16,26 8,13" class="triangle" fill="green" style="stroke-width:1;stroke:rgb(10,10,10)" />
<polygon points="24,13 16,26 8,13" class="triangle" fill="green" style="stroke-width:1;stroke:rgb(10,10,10)" />
<polygon points="16,26 32,26 24,13" class="triangle" fill="green" style="stroke-width:1;stroke:rgb(10,10,10)" />
<polygon points="40,13 32,26 24,13" class="triangle" fill="green" style="stroke-width:1;stroke:rgb(10,10,10)" />
<polygon points="32,26 48,26 40,13" class="triangle" fill="green" style="stroke-width:1;stroke:rgb(10,10,10)" />
<polygon points="56,13 48,26 40,13" class="triangle" fill="green" style="stroke-width:1;stroke:rgb(10,10,10)" />
<polygon points="48,26 64,26 56,13" class="triangle" fill="green" style="stroke-width:1;stroke:rgb(10,10,10)" />
<polygon points="72,13 64,26 56,13" class="triangle" fill="green" style="stroke-width:1;stroke:rgb(10,10,10)" />
<polygon points="64,26 80,26 72,13" class="triangle" fill="green" style="stroke-width:1;stroke:rgb(10,10,10)" />
<polygon points="88,13 80,26 72,13" class="triangle" fill="green" style="stroke-width:1;stroke:rgb(10,10,10)" />
<polygon points="80,26 96,26 88,13" class="triangle" fill="green" style="stroke-width:1;stroke:rgb(10,10,10)" />
<polygon points="104,13 96,26 88,13" class="triangle" fill="green" style="stroke-width:1;stroke:rgb(10,10,10)" />
<polygon points="96,26 112,26 104,13" class="triangle" fill="green" style="stroke-width:1;stroke:rgb(10,10,10)" />
<polygon points="120,13 112,26 104,13" class="triangle" fill="green" style="stroke-width:1;stroke:rgb(10,10,10)" />
<polygon points="112,26 128,26 120,13" class="triangle" fill="green" style="stroke-width:1;stroke:rgb(10,10,10)" />
<polygon points="136,13 128,26 120,13" class="triangle" fill="green" style="stroke-width:1;stroke:rgb(10,10,10)" />
<polygon points="128,26 144,26 136,13" class="triangle" fill="green" style="stroke-width:1;stroke:rgb(10,10,10)" />
<polygon points="152,13 144,26 136,13" class="triangle" fill="green" style="stroke-width:1;stroke:rgb(10,10,10)" />
<polygon points="144,26 160,26 152,13" class="triangle" fill="green" style="stroke-width:1;stroke:rgb(10,10,10)" />
<polygon points="168,13 160,26 152,13" class="triangle" fill="green" style="stroke-width:1;stroke:rgb(10,10,10)" />
<polygon points="160,26 176,26 168,13" class="triangle" fill="green" style="stroke-width:1;stroke:rgb(10,10,10)" />
<polygon points="184,13 176,26 168,13" class="triangle" fill="green" style="stroke-width:1;stroke:rgb(10,10,10)" />
<polygon points="176,26 192,26 184,13" class="triangle" fill="green" style="stroke-width:1;stroke:rgb(10,10,10)" />
<polygon points="200,13 192,26 184,13" class="triangle" fill="green" style="stroke-width:1;stroke:rgb(10,10,10)" />
<polygon points="0,39 16,39 8,26" class="triangle" fill="green" style="stroke-width:1;stroke:rgb(10,10,10)" />
<polygon points="24,26 16,39 8,26" class="triangle" fill="green" style="stroke-width:1;stroke:rgb(10,10,10)" />
<polygon points="16,39 32,39 24,26" class="triangle" fill="green" style="stroke-width:1;stroke:rgb(10,10,10)" />
<polygon points="40,26 32,39 24,26" class="triangle" fill="green" style="stroke-width:1;stroke:rgb(10,10,10)" />
<polygon points="32,39 48,39 40,26" class="triangle" fill="green" style="stroke-width:1;stroke:rgb(10,10,10)" />
<polygon points="56,26 48,39 40,26" class="triangle" fill="green" style="stroke-width:1;stroke:rgb(10,10,10)" />
<polygon points="48,39 64,39 56,26" class="triangle" fill="green" style="stroke-width:1;stroke:rgb(10,10,10)" />
<polygon points="72,26 64,39 56,26" class="triangle" fill="green" style="stroke-width:1;stroke:rgb(10,10,10)" />
<polygon points="64,39 80,39 72,26" class="triangle" fill="green" style="stroke-width:1;stroke:rgb(10,10,10)" />
<polygon points="88,26 80,39 72,26" class="triangle" fill="green" style="stroke-width:1;stroke:rgb(10,10,10)" />
<polygon points="80,39 96,39 88,26" class="triangle" fill="green" style="stroke-width:1;stroke:rgb(10,10,10)" />
<polygon points="104,26 96,39 88,26" class="triangle" fill="green" style="stroke-width:1;stroke:rgb(10,10,10)" />
<polygon points="96,39 112,39 104,26" class="triangle" fill="green" style="stroke-width:1;stroke:rgb(10,10,10)" />
<polygon points="120,26 112,39 104,26" class="triangle" fill="green" style="stroke-width:1;stroke:rgb(10,10,10)" />
<polygon points="112,39 128,39 120,26" class="triangle" fill="green" style="stroke-width:1;stroke:rgb(10,10,10)" />
<polygon points="136,26 128,39 120,26" class="triangle" fill="green" style="stroke-width:1;stroke:rgb(10,10,10)" />
<polygon points="128,39 144,39 136,26" class="triangle" fill="green" style="stroke-width:1;stroke:rgb(10,10,10)" />
<polygon points="152,26 144,39 136,26" class="triangle" fill="green" style="stroke-width:1;stroke:rgb(10,10,10)" />
<polygon points="144,39 160,39 152,26" class="triangle" fill="green" style="stroke-width:1;stroke:rgb(10,10,10)" />
<polygon points="168,26 160,39 152,26" class="triangle" fill="green" style="stroke-width:1;stroke:rgb(10,10,10)" />
<polygon points="160,39 176,39 168,26" class="triangle" fill="green" style="stroke-width:1;stroke:rgb(10,10,10)" />
<polygon points="184,26 176,39 168,26" class="triangle" fill="green" style="stroke-width:1;stroke:rgb(10,10,10)" />
<polygon points="176,39 192,39 184,26" class="triangle" fill="green" style="stroke-width:1;stroke:rgb(10,10,10)" />
<polygon points="200,26 192,39 184,26" class="triangle" fill="green" style="stroke-width:1;stroke:rgb(10,10,10)" />
<polygon points="0,52 16,52 8,39" class="triangle" fill="green" style="stroke-width:1;stroke:rgb(10,10,10)" />
<polygon points="24,39 16,52 8,39" class="triangle" fill="green" style="stroke-width:1;stroke:rgb(10,10,10)" />
<polygon points="16,52 32,52 24,39" class="triangle" fill="green" style="stroke-width:1;stroke:rgb(10,10,10)" />
<polygon points="40,39 32,52 24,39" class="triangle" fill="green" style="stroke-width:1;stroke:rgb(10,10,10)" />
<polygon points="32,52 48,52 40,39" class="triangle" fill="green" style="stroke-width:1;stroke:rgb(10,10,10)" />
<polygon points="56,39 48,52 40,39" class="triangle" fill="green" style="stroke-width:1;stroke:rgb(10,10,10)" />
<polygon points="48,52 64,52 56,39" class="triangle" fill="green" style="stroke-width:1;stroke:rgb(10,10,10)" />
<polygon points="72,39 64,52 56,39" class="triangle" fill="green" style="stroke-width:1;stroke:rgb(10,10,10)" />
<polygon points="64,52 80,52 72,39" class="triangle" fill="green" style="stroke-width:1;stroke:rgb(10,10,10)" />
<polygon points="88,39 80,52 72,39" class="triangle" fill="green" style="stroke-width:1;stroke:rgb(10,10,10)" />
<polygon points="80,52 96,52 88,39" class="triangle" fill="green" style="stroke-width:1;stroke:rgb(10,10,10)" />
<polygon points="104,39 96,52 88,39" class="triangle" fill="green" style="stroke-width:1;stroke:rgb(10,10,10)" />
<polygon points="96,52 112,52 104,39" class="triangle" fill="green" style="stroke-width:1;stroke:rgb(10,10,10)" />
<polygon points="120,39 112,52 104,39" class="triangle" fill="green" style="stroke-width:1;stroke:rgb(10,10,10)" />
<polygon points="112,52 128,52 120,39" class="triangle" fill="green" style="stroke-width:1;stroke:rgb(10,10,10)" />
<polygon points="136,39 128,52 120,39" class="triangle" fill="green" style="stroke-width:1;stroke:rgb(10,10,10)" />
<polygon points="128,52 144,52 136,39" class="triangle" fill="green" style="stroke-width:1;stroke:rgb(10,10,10)" />
<polygon points="152,39 144,52 136,39" class="triangle" fill="green" style="stroke-width:1;stroke:rgb(10,10,10)" />
<polygon points="144,52 160,52 152,39" class="triangle" fill="green" style="stroke-width:1;stroke:rgb(10,10,10)" />
<polygon points="168,39 160,52 152,39" class="triangle" fill="green" style="stroke-width:1;stroke:rgb(10,10,10)" />
<polygon points="160,52 176,52 168,39" class="triangle" fill="green" style="stroke-width:1;stroke:rgb(10,10,10)" />
<polygon points="184,39 176,52 168,39" class="triangle" fill="green" style="stroke-width:1;stroke:rgb(10,10,10)" />
<polygon points="176,52 192,52 184,39" class="triangle" fill="green" style="stroke-width:1;stroke:rgb(10,10,10)" />
<polygon points="200,39 192,52 184,39" class="triangle" fill="green" style="stroke-width:1;stroke:rgb(10,10,10)" />
<polygon points="0,65 16,65 8,52" class="triangle" fill="green" style="stroke-width:1;stroke:rgb(10,10,10)" />
<polygon points="24,52 16,65 8,52" class="triangle" fill="green" style="stroke-width:1;stroke:rgb(10,10,10)" />
<polygon points="16,65 32,65 24,52" class="triangle" fill="green" style="stroke-width:1;stroke:rgb(10,10,10)" />
<polygon points="40,52 32,65 24,52" class="triangle" fill="green" style="stroke-width:1;stroke:rgb(10,10,10)" />
<polygon points="32,65 48,65 40,52" class="triangle" fill="green" style="stroke-width:1;stroke:rgb(10,10,10)" />
<polygon points="56,52 48,65 40,52" class="triangle" fill="green" style="stroke-width:1;stroke:rgb(10,10,10)" />
<polygon points="48,65 64,65 56,52" class="triangle" fill="green" style="stroke-width:1;stroke:rgb(10,10,10)" />
<polygon points="72,52 64,65 56,52" class="triangle" fill="green" style="stroke-width:1;stroke:rgb(10,10,10)" />
<polygon points="64,65 80,65 72,52" class="triangle" fill="green" style="stroke-width:1;stroke:rgb(10,10,10)" />
<polygon points="88,52 80,65 72,52" class="triangle" fill="green" style="stroke-width:1;stroke:rgb(10,10,10)" />
<polygon points="80,65 96,65 88,52" class="triangle" fill="green" style="stroke-width:1;stroke:rgb(10,10,10)" />
<polygon points="104,52 96,65 88,52" class="triangle" fill="green" style="stroke-width:1;stroke:rgb(10,10,10)" />
<polygon points="96,65 112,65 104,52" class="triangle" fill="green" style="stroke-width:1;stroke:rgb(10,10,10)" />
<polygon points="120,52 112,65 104,52" class="triangle" fill="green" style="stroke-width:1;stroke:rgb(10,10,10)" />
<polygon points="112,65 128,65 120,52" class="triangle" fill="green" style="stroke-width:1;stroke:rgb(10,10,10)" />
<polygon points="136,52 128,65 120,52" class="triangle" fill="green" style="stroke-width:1;stroke:rgb(10,10,10)" />
<polygon points="128,65 144,65 136,52" class="triangle" fill="green" style="stroke-width:1;stroke:rgb(10,10,10)" />
<polygon points="152,52 144,65 136,52" class="triangle" fill="green" style="stroke-width:1;stroke:rgb(10,10,10)" />
<polygon points="144,65 160,65 152,52" class="triangle" fill="green" style="stroke-width:1;stroke:rgb(10,10,10)" />
<polygon points="168,52 160,65 152,52" class="triangle" fill="green" style="stroke-width:1;stroke:rgb(10,10,10)" />
<polygon points="160,65 176,65 168,52" class="triangle" fill="green" style="stroke-width:1;stroke:rgb(10,10,10)" />
<polygon points="184,52 176,65 168,52" class="triangle" fill="green" style="stroke-width:1;stroke:rgb(10,10,10)" />
<polygon points="176,65 192,65 184,52" class="triangle" fill="green" style="stroke-width:1;stroke:rgb(10,10,10)" />
<polygon points="200,52 192,65 184,52" class="triangle" fill="green" style="stroke-width:1;stroke:rgb(10,10,10)" />
</svg>
