<svg version="1.1"
baseProfile="full"
width= "300" height="120"
xmlns="http://www.w3.org/2000/svg">
<rect x="0" y="0" width="300" height="120" fill="blue"/>
<polygon points="0,19 23,19 11,0" class="triangle" fill="green" style="stroke-width:1;stroke:rgb(10,10,10)" />
<polygon points="34,0 23,19 11,0" class="triangle" fill="green" style="stroke-width:1;stroke:rgb(10,10,10)" />
<polygon points="23,19 46,19 34,0" class="triangle" fill="green" style="stroke-width:1;stroke:rgb(10,10,10)" />
<polygon points="57,0 46,19 34,0" class="triangle" fill="green" style="stroke-width:1;stroke:rgb(10,10,10)" />
<polygon points="46,19 69,19 57,0" class="triangle" fill="green" style="stroke-width:1;stroke:rgb(10,10,10)" />
<polygon points="80,0 69,19 57,0" class="triangle" fill="green" style="stroke-width:1;stroke:rgb(10,10,10)" />
<polygon points="69,19 92,19 80,0" class="triangle" fill="green" style="stroke-width:1;stroke:rgb(10,10,10)" />
<polygon points="103,0 92,19 80,0" class="triangle" fill="green" style="stroke-width:1;stroke:rgb(10,10,10)" />
<polygon points="92,19 115,19 103,0" class="triangle" fill="green" style="stroke-width:1;stroke:rgb(10,10,10)" />
<polygon points="126,0 115,19 103,0" class="triangle" fill="green" style="stroke-width:1;stroke:rgb(10,10,10)" />
<polygon points="115,19 138,19 126,0" class="triangle" fill="green" style="stroke-width:1;stroke:rgb(10,10,10)" />
<polygon points="149,0 138,19 126,0" class="triangle" fill="green" style="stroke-width:1;stroke:rgb(10,10,10)" />
<polygon points="138,19 161,19 149,0" class="triangle" fill="green" style="stroke-width:1;stroke:rgb(10,10,10)" />
<polygon points="172,0 161,19 149,0" class="triangle" fill="green" style="stroke-width:1;stroke:rgb(10,10,10)" />
<polygon points="161,19 184,19 172,0" class="triangle" fill="green" style="stroke-width:1;stroke:rgb(10,10,10)" />
<polygon points="195,0 184,19 172,0" class="triangle" fill="green" style="stroke-width:1;stroke:rgb(10,10,10)" />
<polygon points="184,19 207,19 195,0" class="triangle" fill="green" style="stroke-width:1;stroke:rgb(10,10,10)" />
<polygon points="218,0 207,19 195,0" class="triangle" fill="green" style="stroke-width:1;stroke:rgb(10,10,10)" />
<polygon points="207,19 230,19 218,0" class="triangle" fill="green" style="stroke-width:1;stroke:rgb(10,10,10)" />
<polygon points="241,0 230,19 218,0" class="triangle" fill="green" style="stroke-width:1;stroke:rgb(10,10,10)" />
<polygon points="230,19 253,19 241,0" class="triangle" fill="green" style="stroke-width:1;stroke:rgb(10,10,10)" />
<polygon points="264,0 253,19 241,0" class="triangle" fill="green" style="stroke-width:1;stroke:rgb(10,10,10)" />
<polygon points="253,19 276,19 264,0" class="triangle" fill="green" style="stroke-width:1;stroke:rgb(10,10,10)" />
<polygon points="287,0 276,19 264,0" class="triangle" fill="green" style="stroke-width:1;stroke:rgb(10,10,10)" />
<polygon points="276,19 299,19 287,0" class="triangle" fill="green" style="stroke-width:1;stroke:rgb(10,10,10)" />
<polygon points="0,38 23,38 11,19" class="triangle" fill="green" style="stroke-width:1;stroke:rgb(10,10,10)" />
<polygon points="34,19 23,38 11,19" class="triangle" fill="green" style="stroke-width:1;stroke:rgb(10,10,10)" />
<polygon points="23,38 46,38 34,19" class="triangle" fill="green" style="stroke-width:1;stroke:rgb(10,10,10)" />
<polygon points="57,19 46,38 34,19" class="triangle" fill="green" style="stroke-width:1;stroke:rgb(10,10,10)" />
<polygon points="46,38 69,38 57,19" class="triangle" fill="green" style="stroke-width:1;stroke:rgb(10,10,10)" />
<polygon points="80,19 69,38 57,19" class="triangle" fill="green" style="stroke-width:1;stroke:rgb(10,10,10)" />
<polygon points="69,38 92,38 80,19" class="triangle" fill="green" style="stroke-width:1;stroke:rgb(10,10,10)" />
<polygon points="103,19 92,38 80,19" class="triangle" fill="green" style="stroke-width:1;stroke:rgb(10,10,10)" />
<polygon points="92,38 115,38 103,19" class="triangle" fill="green" style="stroke-width:1;stroke:rgb(10,10,10)" />
<polygon points="126,19 115,38 103,19" class="triangle" fill="green" style="stroke-width:1;stroke:rgb(10,10,10)" />
<polygon points="115,38 138,38 126,19" class="triangle" fill="green" style="stroke-width:1;stroke:rgb(10,10,10)" />
<polygon points="149,19 138,38 126,19" class="triangle" fill="green" style="stroke-width:1;stroke:rgb(10,10,10)" />
<polygon points="138,38 161,38 149,19" class="triangle" fill="green" style="stroke-width:1;stroke:rgb(10,10,10)" />
<polygon points="172,19 161,38 149,19" class="triangle" fill="green" style="stroke-width:1;stroke:rgb(10,10,10)" />
<polygon points="161,38 184,38 172,19" class="triangle" fill="green" style="stroke-width:1;stroke:rgb(10,10,10)" />
<polygon points="195,19 184,38 172,19" class="triangle" fill="green" style="stroke-width:1;stroke:rgb(10,10,10)" />
<polygon points="184,38 207,38 195,19" class="triangle" fill="green" style="stroke-width:1;stroke:rgb(10,10,10)" />
<polygon points="218,19 207,38 195,19" class="triangle" fill="green" style="stroke-width:1;stroke:rgb(10,10,10)" />
<polygon points="207,38 230,38 218,19" class="triangle" fill="green" style="stroke-width:1;stroke:rgb(10,10,10)" />
<polygon points="241,19 230,38 218,19" class="triangle" fill="green" style="stroke-width:1;stroke:rgb(10,10,10)" />
<polygon points="230,38 253,38 241,19" class="triangle" fill="green" style="stroke-width:1;stroke:rgb(10,10,10)" />
<polygon points="264,19 253,38 241,19" class="triangle" fill="green" style="stroke-width:1;stroke:rgb(10,10,10)" />
<polygon points="253,38 276,38 264,19" class="triangle" fill="green" style="stroke-width:1;stroke:rgb(10,10,10)" />
<polygon points="287,19 276,38 264,19" class="triangle" fill="green" style="stroke-width:1;stroke:rgb(10,10,10)" />
<polygon points="276,38 299,38 287,19" class="triangle" fill="green" style="stroke-width:1;stroke:rgb(10,10,10)" />
<polygon points="0,57 23,57 11,38" class="triangle" fill="green" style="stroke-width:1;stroke:rgb(10,10,10)" />
<polygon points="34,38 23,57 11,38" class="triangle" fill="green" style="stroke-width:1;stroke:rgb(10,10,10)" />
<polygon points="23,57 46,57 34,38" class="triangle" fill="green" style="stroke-width:1;stroke:rgb(10,10,10)" />
<polygon points="57,38 46,57 34,38" class="triangle" fill="green" style="stroke-width:1;stroke:rgb(10,10,10)" />
<polygon points="46,57 69,57 57,38" class="triangle" fill="green" style="stroke-width:1;stroke:rgb(10,10,10)" />
<polygon points="80,38 69,57 57,38" class="triangle" fill="green" style="stroke-width:1;stroke:rgb(10,10,10)" />
<polygon points="69,57 92,57 80,38" class="triangle" fill="green" style="stroke-width:1;stroke:rgb(10,10,10)" />
<polygon points="103,38 92,57 80,38" class="triangle" fill="green" style="stroke-width:1;stroke:rgb(10,10,10)" />
<polygon points="92,57 115,57 103,38" class="triangle" fill="green" style="stroke-width:1;stroke:rgb(10,10,10)" />
<polygon points="126,38 115,57 103,38" class="triangle" fill="green" style="stroke-width:1;stroke:rgb(10,10,10)" />
<polygon points="115,57 138,57 126,38" class="triangle" fill="green" style="stroke-width:1;stroke:rgb(10,10,10)" />
<polygon points="149,38 138,57 126,38" class="triangle" fill="green" style="stroke-width:1;stroke:rgb(10,10,10)" />
<polygon points="138,57 161,57 149,38" class="triangle" fill="green" style="stroke-width:1;stroke:rgb(10,10,10)" />
<polygon points="172,38 161,57 149,38" class="triangle" fill="green" style="stroke-width:1;stroke:rgb(10,10,10)" />
<polygon points="161,57 184,57 172,38" class="triangle" fill="green" style="stroke-width:1;stroke:rgb(10,10,10)" />
<polygon points="195,38 184,57 172,38" class="triangle" fill="green" style="stroke-width:1;stroke:rgb(10,10,10)" />
<polygon points="184,57 207,57 195,38" class="triangle" fill="green" style="stroke-width:1;stroke:rgb(10,10,10)" />
<polygon points="218,38 207,57 195,38" class="triangle" fill="green" style="stroke-width:1;stroke:rgb(10,10,10)" />
<polygon points="207,57 230,57 218,38" class="triangle" fill="green" style="stroke-width:1;stroke:rgb(10,10,10)" />
<polygon points="241,38 230,57 218,38" class="triangle" fill="green" style="stroke-width:1;stroke:rgb(10,10,10)" />
<polygon points="230,57 253,57 241,38" class="triangle" fill="green" style="stroke-width:1;stroke:rgb(10,10,10)" />
<polygon points="264,38 253,57 241,38" class="triangle" fill="green" style="stroke-width:1;stroke:rgb(10,10,10)" />
<polygon points="253,57 276,57 264,38" class="triangle" fill="green" style="stroke-width:1;stroke:rgb(10,10,10)" />
<polygon points="287,38 276,57 264,38" class="triangle" fill="green" style="stroke-width:1;stroke:rgb(10,10,10)" />
<polygon points="276,57 299,57 287,38" class="triangle" fill="green" style="stroke-width:1;stroke:rgb(10,10,10)" />
<polygon points="0,76 23,76 11,57" class="triangle" fill="green" style="stroke-width:1;stroke:rgb(10,10,10)" />
<polygon points="34,57 23,76 11,57" class="triangle" fill="green" style="stroke-width:1;stroke:rgb(10,10,10)" />
<polygon points="23,76 46,76 34,57" class="triangle" fill="green" style="stroke-width:1;stroke:rgb(10,10,10)" />
<polygon points="57,57 46,76 34,57" class="triangle" fill="green" style="stroke-width:1;stroke:rgb(10,10,10)" />
<polygon points="46,76 69,76 57,57" class="triangle" fill="green" style="stroke-width:1;stroke:rgb(10,10,10)" />
<polygon points="80,57 69,76 57,57" class="triangle" fill="green" style="stroke-width:1;stroke:rgb(10,10,10)" />
<polygon points="69,76 92,76 80,57" class="triangle" fill="green" style="stroke-width:1;stroke:rgb(10,10,10)" />
<polygon points="103,57 92,76 80,57" class="triangle" fill="green" style="stroke-width:1;stroke:rgb(10,10,10)" />
<polygon points="92,76 115,76 103,57" class="triangle" fill="green" style="stroke-width:1;stroke:rgb(10,10,10)" />
<polygon points="126,57 115,76 103,57" class="triangle" fill="green" style="stroke-width:1;stroke:rgb(10,10,10)" />
<polygon points="115,76 138,76 126,57" class="triangle" fill="green" style="stroke-width:1;stroke:rgb(10,10,10)" />
<polygon points="149,57 138,76 126,57" class="triangle" fill="green" style="stroke-width:1;stroke:rgb(10,10,10)" />
<polygon points="138,76 161,76 149,57" class="triangle" fill="green" style="stroke-width:1;stroke:rgb(10,10,10)" />
<polygon points="172,57 161,76 149,57" class="triangle" fill="green" style="stroke-width:1;stroke:rgb(10,10,10)" />
<polygon points="161,76 184,76 172,57" class="triangle" fill="green" style="stroke-width:1;stroke:rgb(10,10,10)" />
<polygon points="195,57 184,76 172,57" class="triangle" fill="green" style="stroke-width:1;stroke:rgb(10,10,10)" />
<polygon points="184,76 207,76 195,57" class="triangle" fill="green" style="stroke-width:1;stroke:rgb(10,10,10)" />
<polygon points="218,57 207,76 195,57" class="triangle" fill="green" style="stroke-width:1;stroke:rgb(10,10,10)" />
<polygon points="207,76 230,76 218,57" class="triangle" fill="green" style="stroke-width:1;stroke:rgb(10,10,10)" />
<polygon points="241,57 230,76 218,57" class="triangle" fill="green" style="stroke-width:1;stroke:rgb(10,10,10)" />
<polygon points="230,76 253,76 241,57" class="triangle" fill="green" style="stroke-width:1;stroke:rgb(10,10,10)" />
<polygon points="264,57 253,76 241,57" class="triangle" fill="green" style="stroke-width:1;stroke:rgb(10,10,10)" />
<polygon points="253,76 276,76 264,57" class="triangle" fill="green" style="stroke-width:1;stroke:rgb(10,10,10)" />
<polygon points="287,57 276,76 264,57" class="triangle" fill="green" style="stroke-width:1;stroke:rgb(10,10,10)" />
<polygon points="276,76 299,76 287,57" class="triangle" fill="green" style="stroke-width:1;stroke:rgb(10,10,10)" />
<polygon points="0,95 23,95 11,76" class="triangle" fill="green" style="stroke-width:1;stroke:rgb(10,10,10)" />
<polygon points="34,76 23,95 11,76" class="triangle" fill="green" style="stroke-width:1;stroke:rgb(10,10,10)" />
<polygon points="23,95 46,95 34,76" class="triangle" fill="green" style="stroke-width:1;stroke:rgb(10,10,10)" />
<polygon points="57,76 46,95 34,76" class="triangle" fill="green" style="stroke-width:1;stroke:rgb(10,10,10)" />
<polygon points="46,95 69,95 57,76" class="triangle" fill="green" style="stroke-width:1;stroke:rgb(10,10,10)" />
<polygon points="80,76 69,95 57,76" class="triangle" fill="green" style="stroke-width:1;stroke:rgb(10,10,10)" />
<polygon points="69,95 92,95 80,76" class="triangle" fill="green" style="stroke-width:1;stroke:rgb(10,10,10)" />
<polygon points="103,76 92,95 80,76" class="triangle" fill="green" style="stroke-width:1;stroke:rgb(10,10,10)" />
<polygon points="92,95 115,95 103,76" class="triangle" fill="green" style="stroke-width:1;stroke:rgb(10,10,10)" />
<polygon points="126,76 115,95 103,76" class="triangle" fill="green" style="stroke-width:1;stroke:rgb(10,10,10)" />
<polygon points="115,95 138,95 126,76" class="triangle" fill="green" style="stroke-width:1;stroke:rgb(10,10,10)" />
<polygon points="149,76 138,95 126,76" class="triangle" fill="green" style="stroke-width:1;stroke:rgb(10,10,10)" />
<polygon points="138,95 161,95 149,76" class="triangle" fill="green" style="stroke-width:1;stroke:rgb(10,10,10)" />
<polygon points="172,76 161,95 149,76" class="triangle" fill="green" style="stroke-width:1;stroke:rgb(10,10,10)" />
<polygon points="161,95 184,95 172,76" class="triangle" fill="green" style="stroke-width:1;stroke:rgb(10,10,10)" />
<polygon points="195,76 184,95 172,76" class="triangle" fill="green" style="stroke-width:1;stroke:rgb(10,10,10)" />
<polygon points="184,95 207,95 195,76" class="triangle" fill="green" style="stroke-width:1;stroke:rgb(10,10,10)" />
<polygon points="218,76 207,95 195,76" class="triangle" fill="green" style="stroke-width:1;stroke:rgb(10,10,10)" />
<polygon points="207,95 230,95 218,76" class="triangle" fill="green" style="stroke-width:1;stroke:rgb(10,10,10)" />
<polygon points="241,76 230,95 218,76" class="triangle" fill="green" style="stroke-width:1;stroke:rgb(10,10,10)" />
<polygon points="230,95 253,95 241,76" class="triangle" fill="green" style="stroke-width:1;stroke:rgb(10,10,10)" />
<polygon points="264,76 253,95 241,76" class="triangle" fill="green" style="stroke-width:1;stroke:rgb(10,10,10)" />
<polygon points="253,95 276,95 264,76" class="triangle" fill="green" style="stroke-width:1;stroke:rgb(10,10,10)" />
<polygon points="287,76 276,95 264,76" class="triangle" fill="green" style="stroke-width:1;stroke:rgb(10,10,10)" />
<polygon points="276,95 299,95 287,76" class="triangle" fill="green" style="stroke-width:1;stroke:rgb(10,10,10)" />
<polygon points="0,114 23,114 11,95" class="triangle" fill="green" style="stroke-width:1;stroke:rgb(10,10,10)" />
<polygon points="34,95 23,114 11,95" class="triangle" fill="green" style="stroke-width:1;stroke:rgb(10,10,10)" />
<polygon points="23,114 46,114 34,95" class="triangle" fill="green" style="stroke-width:1;stroke:rgb(10,10,10)" />
<polygon points="57,95 46,114 34,95" class="triangle" fill="green" style="stroke-width:1;stroke:rgb(10,10,10)" />
<polygon points="46,114 69,114 57,95" class="triangle" fill="green" style="stroke-width:1;stroke:rgb(10,10,10)" />
<polygon points="80,95 69,114 57,95" class="triangle" fill="green" style="stroke-width:1;stroke:rgb(10,10,10)" />
<polygon points="69,114 92,114 80,95" class="triangle" fill="green" style="stroke-width:1;stroke:rgb(10,10,10)" />
<polygon points="103,95 92,114 80,95" class="triangle" fill="green" style="stroke-width:1;stroke:rgb(10,10,10)" />
<polygon points="92,114 115,114 103,95" class="triangle" fill="green" style="stroke-width:1;stroke:rgb(10,10,10)" />
<polygon points="126,95 115,114 103,95" class="triangle" fill="green" style="stroke-width:1;stroke:rgb(10,10,10)" />
<polygon points="115,114 138,114 126,95" class="triangle" fill="green" style="stroke-width:1;stroke:rgb(10,10,10)" />
<polygon points="149,95 138,114 126,95" class="triangle" fill="green" style="stroke-width:1;stroke:rgb(10,10,10)" />
<polygon points="138,114 161,114 149,95" class="triangle" fill="green" style="stroke-width:1;stroke:rgb(10,10,10)" />
<polygon points="172,95 161,114 149,95" class="triangle" fill="green" style="stroke-width:1;stroke:rgb(10,10,10)" />
<polygon points="161,114 184,114 172,95" class="triangle" fill="green" style="stroke-width:1;stroke:rgb(10,10,10)" />
<polygon points="195,95 184,114 172,95" class="triangle" fill="green" style="stroke-width:1;stroke:rgb(10,10,10)" />
<polygon points="184,114 207,114 195,95" class="triangle" fill="green" style="stroke-width:1;stroke:rgb(10,10,10)" />
<polygon points="218,95 207,114 195,95" class="triangle" fill="green" style="stroke-width:1;stroke:rgb(10,10,10)" />
<polygon points="207,114 230,114 218,95" class="triangle" fill="green" style="stroke-width:1;stroke:rgb(10,10,10)" />
<polygon points="241,95 230,114 218,95" class="triangle" fill="green" style="stroke-width:1;stroke:rgb(10,10,10)" />
<polygon points="230,114 253,114 241,95" class="triangle" fill="green" style="stroke-width:1;stroke:rgb(10,10,10)" />
<polygon points="264,95 253,114 241,95" class="triangle" fill="green" style="stroke-width:1;stroke:rgb(10,10,10)" />
<polygon points="253,114 276,114 264,95" class="triangle" fill="green" style="stroke-width:1;stroke:rgb(10,10,10)" />
<polygon points="287,95 276,114 264,95" class="triangle" fill="green" style="stroke-width:1;stroke:rgb(10,10,10)" />
<polygon points="276,114 299,114 287,95" class="triangle" fill="green" style="stroke-width:1;stroke:rgb(10,10,10)" />
</svg>
