<svg version="1.1"
baseProfile="full"
width= "200" height="200"
xmlns="http://www.w3.org/2000/svg">
<circle cx="100" cy="100" r="100" fill="blue" />
<circle cx="100" cy="10" r=" 10" fill="green" style="stroke-width:1;stroke:rgb(10,10,10)" />
<circle cx="100" cy="190" r=" 10" fill="green" style="stroke-width:1;stroke:rgb(10,10,10)" />
<circle cx="80" cy="30" r=" 10" fill="green" style="stroke-width:1;stroke:rgb(10,10,10)" />
<circle cx="80" cy="170" r=" 10" fill="green" style="stroke-width:1;stroke:rgb(10,10,10)" />
<circle cx="100" cy="30" r=" 10" fill="green" style="stroke-width:1;stroke:rgb(10,10,10)" />
<circle cx="100" cy="170" r=" 10" fill="green" style="stroke-width:1;stroke:rgb(10,10,10)" />
<circle cx="120" cy="30" r=" 10" fill="green" style="stroke-width:1;stroke:rgb(10,10,10)" />
<circle cx="120" cy="170" r=" 10" fill="green" style="stroke-width:1;stroke:rgb(10,10,10)" />
<circle cx="60" cy="50" r=" 10" fill="green" style="stroke-width:1;stroke:rgb(10,10,10)" />
<circle cx="60" cy="150" r=" 10" fill="green" style="stroke-width:1;stroke:rgb(10,10,10)" />
<circle cx="80" cy="50" r=" 10" fill="green" style="stroke-width:1;stroke:rgb(10,10,10)" />
<circle cx="80" cy="150" r=" 10" fill="green" style="stroke-width:1;stroke:rgb(10,10,10)" />
<circle cx="100" cy="50" r=" 10" fill="green" style="stroke-width:1;stroke:rgb(10,10,10)" />
<circle cx="100" cy="150" r=" 10" fill="green" style="stroke-width:1;stroke:rgb(10,10,10)" />
<circle cx="120" cy="50" r=" 10" fill="green" style="stroke-width:1;stroke:rgb(10,10,10)" />
<circle cx="120" cy="150" r=" 10" fill="green" style="stroke-width:1;stroke:rgb(10,10,10)" />
<circle cx="140" cy="50" r=" 10" fill="green" style="stroke-width:1;stroke:rgb(10,10,10)" />
<circle cx="140" cy="150" r=" 10" fill="green" style="stroke-width:1;stroke:rgb(10,10,10)" />
<circle cx="40" cy="70" r=" 10" fill="green" style="stroke-width:1;stroke:rgb(10,10,10)" />
<circle cx="40" cy="130" r=" 10" fill="green" style="stroke-width:1;stroke:rgb(10,10,10)" />
<circle cx="60" cy="70" r=" 10" fill="green" style="stroke-width:1;stroke:rgb(10,10,10)" />
<circle cx="60" cy="130" r=" 10" fill="green" style="stroke-width:1;stroke:rgb(10,10,10)" />
<circle cx="80" cy="70" r=" 10" fill="green" style="stroke-width:1;stroke:rgb(10,10,10)" />
<circle cx="80" cy="130" r=" 10" fill="green" style="stroke-width:1;stroke:rgb(10,10,10)" />
<circle cx="100" cy="70" r=" 10" fill="green" style="stroke-width:1;stroke:rgb(10,10,10)" />
<circle cx="100" cy="130" r=" 10" fill="green" style="stroke-width:1;stroke:rgb(10,10,10)" />
<circle cx="120" cy="70" r=" 10" fill="green" style="stroke-width:1;stroke:rgb(10,10,10)" />
<circle cx="120" cy="130" r=" 10" fill="green" style="stroke-width:1;stroke:rgb(10,10,10)" />
<circle cx="140" cy="70" r=" 10" fill="green" style="stroke-width:1;stroke:rgb(10,10,10)" />
<circle cx="140" cy="130" r=" 10" fill="green" style="stroke-width:1;stroke:rgb(10,10,10)" />
<circle cx="160" cy="70" r=" 10" fill="green" style="stroke-width:1;stroke:rgb(10,10,10)" />
<circle cx="160" cy="130" r=" 10" fill="green" style="stroke-width:1;stroke:rgb(10,10,10)" />
<circle cx="20" cy="90" r=" 10" fill="green" style="stroke-width:1;stroke:rgb(10,10,10)" />
<circle cx="20" cy="110" r=" 10" fill="green" style="stroke-width:1;stroke:rgb(10,10,10)" />
<circle cx="40" cy="90" r=" 10" fill="green" style="stroke-width:1;stroke:rgb(10,10,10)" />
<circle cx="40" cy="110" r=" 10" fill="green" style="stroke-width:1;stroke:rgb(10,10,10)" />
<circle cx="60" cy="90" r=" 10" fill="green" style="stroke-width:1;stroke:rgb(10,10,10)" />
<circle cx="60" cy="110" r=" 10" fill="green" style="stroke-width:1;stroke:rgb(10,10,10)" />
<circle cx="80" cy="90" r=" 10" fill="green" style="stroke-width:1;stroke:rgb(10,10,10)" />
<circle cx="80" cy="110" r=" 10" fill="green" style="stroke-width:1;stroke:rgb(10,10,10)" />
<circle cx="100" cy="90" r=" 10" fill="green" style="stroke-width:1;stroke:rgb(10,10,10)" />
<circle cx="100" cy="110" r=" 10" fill="green" style="stroke-width:1;stroke:rgb(10,10,10)" />
<circle cx="120" cy="90" r=" 10" fill="green" style="stroke-width:1;stroke:rgb(10,10,10)" />
<circle cx="120" cy="110" r=" 10" fill="green" style="stroke-width:1;stroke:rgb(10,10,10)" />
<circle cx="140" cy="90" r=" 10" fill="green" style="stroke-width:1;stroke:rgb(10,10,10)" />
<circle cx="140" cy="110" r=" 10" fill="green" style="stroke-width:1;stroke:rgb(10,10,10)" />
<circle cx="160" cy="90" r=" 10" fill="green" style="stroke-width:1;stroke:rgb(10,10,10)" />
<circle cx="160" cy="110" r=" 10" fill="green" style="stroke-width:1;stroke:rgb(10,10,10)" />
<circle cx="180" cy="90" r=" 10" fill="green" style="stroke-width:1;stroke:rgb(10,10,10)" />
<circle cx="180" cy="110" r=" 10" fill="green" style="stroke-width:1;stroke:rgb(10,10,10)" />
</svg>
